<svg width="32" height="18" viewBox="0 0 32 18" fill="none" xmlns="http://www.w3.org/2000/svg">
<path d="M0 1.13672H2.92755C4.05036 1.13672 4.96058 2.04693 4.96058 3.16974V15.0833C4.96058 16.2061 4.05036 17.1163 2.92755 17.1163H2.03302C0.910216 17.1163 0 16.2061 0 15.0833V1.13672Z" fill="#0095FF"/>
<path d="M29.8421 1.62134C30.1471 1.31132 30.5638 1.13672 30.9988 1.13672C31.5519 1.13672 32.0003 1.58514 32.0003 2.1383V17.1163H20.0898C18.0487 17.1163 17.0179 14.6562 18.4494 13.2012L29.8421 1.62134Z" fill="white"/>
<path d="M8.86426 1.13672C13.1102 1.13681 16.5525 4.71357 16.5527 9.12598C16.5527 10.5287 16.2027 11.8464 15.5918 12.9922C16.1678 13.351 16.5526 13.9882 16.5527 14.7168V15.083C16.5527 16.2058 15.6423 17.1162 14.5195 17.1162H9.19336V17.1064C9.0842 17.1112 8.97455 17.1162 8.86426 17.1162H6.18359V16.5059C6.1838 14.6422 7.79161 13.318 9.47656 12.5215C10.6878 11.949 11.5438 10.9037 11.5439 9.10645C11.5439 6.88334 9.8101 5.08114 7.6709 5.08105C6.91827 5.08105 6.18367 4.35809 6.18359 3.60547V2.11621C6.1836 1.57522 6.60638 1.13672 7.12695 1.13672H8.86426Z" fill="#ED008E"/>
<path d="M17.3876 6.04777C16.2739 4.93408 16.2739 3.12842 17.3876 2.01473V2.01473C18.5013 0.901036 20.307 0.901036 21.4207 2.01473L22.6404 3.23448C23.7541 4.34817 23.7541 6.15383 22.6404 7.26752V7.26752C21.5267 8.38121 19.7211 8.38121 18.6074 7.26752L17.3876 6.04777Z" fill="#FEC720"/>
</svg>
