<svg width="1531" height="401" viewBox="0 0 1531 401" fill="none" xmlns="http://www.w3.org/2000/svg">
<path d="M0 0.472656H73.2138C101.294 0.472656 124.057 23.2358 124.057 51.3156V349.255C124.057 377.335 101.294 400.098 73.2138 400.098H50.843C22.7632 400.098 0 377.335 0 349.255V0.472656Z" fill="#0095FF"/>
<path d="M746.297 12.5923C753.925 4.83904 764.346 0.472656 775.222 0.472656C789.056 0.472656 800.27 11.687 800.27 25.5206V400.098H502.405C451.36 400.098 425.583 338.576 461.382 302.188L746.297 12.5923Z" fill="#1A1A1A"/>
<path d="M221.589 0.480469C327.778 0.480487 413.861 89.9396 413.861 200.293C413.861 235.356 405.167 268.309 389.902 296.954C404.287 305.934 413.86 321.903 413.86 340.11V349.263C413.86 377.342 391.096 400.105 363.017 400.105H229.809V399.925C227.083 400.044 224.343 400.105 221.589 400.105H154.562V384.854C154.562 338.241 194.763 305.115 236.904 285.194C267.197 270.875 288.615 244.738 288.615 199.785C288.615 144.187 245.245 99.1163 191.745 99.1162C172.922 99.1162 154.562 81.0439 154.562 62.2207V24.9775C154.563 11.4484 165.116 0.480674 178.135 0.480469H221.589Z" fill="#ED008E"/>
<path d="M434.805 123.294C406.953 95.4417 406.953 50.2849 434.805 22.4331V22.4331C462.657 -5.41879 507.814 -5.4188 535.666 22.433L566.17 52.9371C594.022 80.789 594.022 125.946 566.17 153.798V153.798C538.318 181.649 493.161 181.649 465.309 153.798L434.805 123.294Z" fill="#FEC720"/>
<path d="M908.102 204V72.9151H907.445L860.285 100.27V74.2281L907.883 46.1072H937.755V204H908.102ZM966.322 204V184.633L1049.15 130.798C1057.54 125.181 1064.03 120.33 1068.63 116.245C1073.3 112.16 1076.54 108.331 1078.37 104.756C1080.26 101.182 1081.21 97.3157 1081.21 93.1578V92.9389C1081.21 87.4679 1079.61 82.7264 1076.4 78.7143C1073.19 74.7023 1068.59 71.6021 1062.61 69.4137C1056.63 67.2253 1049.48 66.1311 1041.17 66.1311C1032.19 66.1311 1024.39 67.4076 1017.75 69.9608C1011.11 72.4409 1005.82 75.9789 1001.88 80.5745C997.944 85.1701 995.537 90.6776 994.662 97.0969L994.443 98.4099H966.213V97.4251C967.088 86.2643 970.699 76.6354 977.045 68.5383C983.464 60.3683 992.145 54.0949 1003.09 49.7181C1014.1 45.2684 1026.87 43.0435 1041.38 43.0435C1055.83 43.0435 1068.23 45.0495 1078.59 49.0616C1088.95 53.0007 1096.9 58.6176 1102.44 65.9122C1108.06 73.1339 1110.87 81.7416 1110.87 91.7353V91.9541C1110.87 98.4464 1109.52 104.464 1106.82 110.008C1104.12 115.552 1099.63 121.206 1093.36 126.968C1087.16 132.658 1078.66 139.114 1067.86 146.336L1006.81 186.165L1016 169.205V191.417L1005.6 180.694H1114.91V204H966.322ZM1209.02 206.954C1191.88 206.954 1177 203.562 1164.38 196.778C1151.76 189.994 1141.99 180.475 1135.06 168.22C1128.2 155.965 1124.77 141.594 1124.77 125.108V124.889C1124.77 108.331 1128.2 93.9237 1135.06 81.6687C1141.99 69.4137 1151.76 59.9306 1164.38 53.2195C1177 46.4355 1191.88 43.0435 1209.02 43.0435C1225.95 43.0435 1240.65 46.4355 1253.12 53.2195C1265.59 60.0036 1275.22 69.5231 1282.01 81.7781C1288.86 94.0331 1292.29 108.404 1292.29 124.889V125.108C1292.29 141.521 1288.86 155.892 1282.01 168.22C1275.22 180.475 1265.59 189.994 1253.12 196.778C1240.65 203.562 1225.95 206.954 1209.02 206.954ZM1209.02 183.32C1219.82 183.32 1229.16 180.912 1237.04 176.098C1244.99 171.283 1251.11 164.536 1255.42 155.855C1259.72 147.102 1261.87 136.816 1261.87 124.999V124.78C1261.87 113.036 1259.72 102.823 1255.42 94.1425C1251.11 85.389 1244.99 78.6414 1237.04 73.8999C1229.16 69.1584 1219.82 66.7876 1209.02 66.7876C1197.94 66.7876 1188.38 69.1584 1180.36 73.8999C1172.33 78.6414 1166.13 85.3525 1161.75 94.0331C1157.38 102.714 1155.19 112.963 1155.19 124.78V124.999C1155.19 136.816 1157.38 147.102 1161.75 155.855C1166.13 164.536 1172.33 171.283 1180.36 176.098C1188.38 180.912 1197.94 183.32 1209.02 183.32ZM1409.6 204V173.8H1301.16V149.618C1307.44 142.761 1313.71 135.868 1319.98 128.938C1326.26 122.008 1332.53 115.115 1338.8 108.258C1345.08 101.328 1351.35 94.4343 1357.62 87.5773C1363.9 80.6474 1370.17 73.754 1376.44 66.897C1382.79 59.9671 1389.1 53.0372 1395.37 46.1072H1438.38V150.603H1464.09V173.8H1438.38V204H1409.6ZM1332.02 151.15H1410.04V66.897H1409.27C1404.09 72.5139 1398.91 78.1308 1393.73 83.7477C1388.63 89.2916 1383.48 94.8355 1378.3 100.379C1373.2 105.923 1368.06 111.504 1362.88 117.121C1357.77 122.665 1352.63 128.245 1347.45 133.862C1342.34 139.406 1337.2 144.95 1332.02 150.494V151.15Z" fill="#1A1A1A"/>
<path d="M912.34 387.398C901.706 387.398 892.324 385.695 884.193 382.29C876.131 378.884 869.703 374.054 864.907 367.799C860.181 361.544 857.506 354.212 856.88 345.803L856.776 344.344H870.954L871.162 345.803C871.857 351.572 874.012 356.61 877.625 360.919C881.239 365.158 886.069 368.46 892.116 370.822C898.162 373.116 905.147 374.263 913.069 374.263C920.923 374.263 927.733 373.116 933.502 370.822C939.34 368.46 943.857 365.124 947.054 360.815C950.32 356.436 951.953 351.363 951.953 345.595V345.49C951.953 338.124 949.417 332.251 944.343 327.873C939.27 323.425 930.93 319.88 919.324 317.24L902.853 313.591C888.328 310.255 877.625 305.355 870.745 298.892C863.934 292.359 860.529 283.742 860.529 273.039V272.935C860.598 264.942 862.822 257.888 867.201 251.773C871.579 245.657 877.625 240.861 885.34 237.386C893.054 233.912 901.845 232.174 911.714 232.174C921.444 232.174 930.096 233.946 937.672 237.491C945.247 240.966 951.293 245.83 955.811 252.085C960.397 258.271 962.969 265.498 963.525 273.769L963.629 275.228H949.451L949.347 273.873C948.583 267.966 946.533 262.892 943.197 258.653C939.93 254.413 935.587 251.147 930.166 248.854C924.745 246.491 918.49 245.309 911.401 245.309C904.174 245.309 897.815 246.456 892.324 248.749C886.834 251.043 882.56 254.24 879.502 258.34C876.513 262.371 875.019 267.097 875.019 272.518V272.726C875.019 279.676 877.556 285.375 882.629 289.823C887.703 294.201 895.695 297.641 906.606 300.143L923.077 303.792C933.363 306.085 941.668 309.039 947.992 312.653C954.386 316.197 959.042 320.61 961.961 325.892C964.88 331.174 966.339 337.498 966.339 344.865V344.969C966.339 353.587 964.116 361.093 959.668 367.487C955.289 373.811 949.034 378.71 940.903 382.185C932.841 385.66 923.32 387.398 912.34 387.398ZM1010.55 386.981C1001.65 386.981 994.981 384.792 990.533 380.413C986.155 375.965 983.966 369.015 983.966 359.564V288.155H968.016V276.583H983.966V247.29H998.143V276.583H1019.51V288.155H998.143V359.355C998.143 365.332 999.394 369.502 1001.9 371.865C1004.47 374.228 1008.29 375.409 1013.36 375.409C1014.54 375.409 1015.66 375.375 1016.7 375.305C1017.81 375.166 1018.75 375.062 1019.51 374.992V386.147C1018.47 386.355 1017.12 386.529 1015.45 386.668C1013.85 386.876 1012.22 386.981 1010.55 386.981ZM1068 386.876C1060 386.876 1053.16 385.243 1047.46 381.977C1041.76 378.71 1037.38 374.019 1034.33 367.904C1031.27 361.788 1029.74 354.49 1029.74 346.012V276.583H1043.5V343.718C1043.5 353.795 1045.93 361.475 1050.8 366.757C1055.73 372.039 1062.78 374.68 1071.96 374.68C1076.75 374.68 1081.06 373.88 1084.88 372.282C1088.71 370.614 1092.01 368.286 1094.79 365.297C1097.64 362.309 1099.79 358.765 1101.25 354.664C1102.78 350.494 1103.54 345.873 1103.54 340.799V276.583H1117.2V385H1103.54V366.444H1103.13C1101.32 370.336 1098.78 373.846 1095.52 376.973C1092.25 380.031 1088.29 382.463 1083.63 384.27C1079.05 386.008 1073.83 386.876 1068 386.876ZM1172.98 386.981C1163.88 386.981 1155.89 384.653 1149 379.996C1142.12 375.34 1136.74 368.807 1132.85 360.398C1129.02 351.919 1127.11 342.05 1127.11 330.792V330.687C1127.11 319.359 1129.06 309.525 1132.95 301.186C1136.84 292.776 1142.19 286.244 1149 281.587C1155.89 276.931 1163.84 274.603 1172.88 274.603C1178.58 274.603 1183.86 275.61 1188.72 277.626C1193.59 279.641 1197.83 282.525 1201.44 286.278C1205.12 289.962 1207.97 294.305 1209.99 299.309H1210.41V234.572H1224.06V385H1210.41V362.378H1209.89C1207.87 367.382 1205.05 371.726 1201.44 375.409C1197.83 379.023 1193.62 381.873 1188.83 383.958C1184.03 385.973 1178.75 386.981 1172.98 386.981ZM1175.59 374.68C1182.4 374.68 1188.41 372.873 1193.62 369.259C1198.9 365.575 1203 360.432 1205.92 353.83C1208.91 347.158 1210.41 339.479 1210.41 330.792V330.687C1210.41 322 1208.91 314.355 1205.92 307.753C1202.94 301.151 1198.83 296.043 1193.62 292.429C1188.41 288.745 1182.4 286.904 1175.59 286.904C1168.64 286.904 1162.56 288.711 1157.34 292.325C1152.2 295.869 1148.21 300.942 1145.36 307.545C1142.58 314.077 1141.19 321.792 1141.19 330.687V330.792C1141.19 339.687 1142.58 347.436 1145.36 354.039C1148.21 360.641 1152.2 365.749 1157.34 369.363C1162.56 372.907 1168.64 374.68 1175.59 374.68ZM1241.38 385V276.583H1255.14V385H1241.38ZM1248.26 256.985C1245.75 256.985 1243.6 256.116 1241.79 254.379C1240.06 252.572 1239.19 250.383 1239.19 247.811C1239.19 245.309 1240.06 243.19 1241.79 241.452C1243.6 239.645 1245.75 238.742 1248.26 238.742C1250.83 238.742 1252.98 239.645 1254.72 241.452C1256.53 243.19 1257.43 245.309 1257.43 247.811C1257.43 250.383 1256.53 252.572 1254.72 254.379C1252.98 256.116 1250.83 256.985 1248.26 256.985ZM1315.4 386.981C1305.6 386.911 1296.98 384.618 1289.55 380.1C1282.11 375.514 1276.31 369.015 1272.14 360.606C1268.04 352.197 1265.99 342.259 1265.99 330.792V330.583C1265.99 319.116 1268.04 309.213 1272.14 300.873C1276.31 292.464 1282.11 286 1289.55 281.483C1296.98 276.896 1305.57 274.603 1315.3 274.603C1325.16 274.603 1333.78 276.896 1341.15 281.483C1348.58 286 1354.39 292.429 1358.56 300.769C1362.73 309.108 1364.81 319.047 1364.81 330.583V330.792C1364.81 342.328 1362.73 352.301 1358.56 360.71C1354.39 369.05 1348.62 375.514 1341.25 380.1C1333.89 384.687 1325.27 386.981 1315.4 386.981ZM1315.5 374.68C1322.59 374.68 1328.78 372.942 1334.06 369.467C1339.34 365.992 1343.44 360.954 1346.36 354.351C1349.28 347.749 1350.74 339.896 1350.74 330.792V330.583C1350.74 321.409 1349.28 313.556 1346.36 307.023C1343.44 300.491 1339.31 295.521 1333.96 292.116C1328.67 288.641 1322.45 286.904 1315.3 286.904C1308.28 286.904 1302.13 288.641 1296.84 292.116C1291.56 295.591 1287.43 300.595 1284.44 307.128C1281.52 313.66 1280.06 321.479 1280.06 330.583V330.792C1280.06 339.896 1281.52 347.749 1284.44 354.351C1287.43 360.954 1291.56 365.992 1296.84 369.467C1302.13 372.942 1308.35 374.68 1315.5 374.68ZM1411.84 386.981C1403.64 386.981 1396.48 385.625 1390.36 382.915C1384.31 380.135 1379.48 376.348 1375.87 371.552C1372.26 366.687 1370.1 361.058 1369.41 354.664L1369.3 353.726H1382.96L1383.17 354.664C1384.28 360.988 1387.3 366.027 1392.24 369.78C1397.17 373.463 1403.7 375.305 1411.84 375.305C1417.4 375.305 1422.16 374.541 1426.12 373.012C1430.15 371.483 1433.24 369.293 1435.4 366.444C1437.62 363.525 1438.73 360.189 1438.73 356.436V356.332C1438.73 351.606 1437.27 347.853 1434.35 345.073C1431.43 342.294 1426.33 340.035 1419.03 338.297L1402.66 334.44C1395.85 332.772 1390.19 330.653 1385.67 328.081C1381.22 325.51 1377.89 322.382 1375.66 318.699C1373.51 314.946 1372.43 310.568 1372.43 305.564V305.46C1372.43 299.413 1374.06 294.097 1377.33 289.51C1380.67 284.854 1385.22 281.205 1390.99 278.564C1396.82 275.923 1403.5 274.603 1411 274.603C1418.72 274.603 1425.42 275.993 1431.12 278.772C1436.89 281.483 1441.44 285.271 1444.78 290.135C1448.18 294.931 1450.13 300.456 1450.62 306.711L1450.72 307.857H1437.59L1437.48 307.128C1436.65 300.803 1433.9 295.765 1429.25 292.012C1424.66 288.189 1418.58 286.278 1411 286.278C1406.07 286.278 1401.76 287.077 1398.08 288.676C1394.39 290.205 1391.54 292.394 1389.53 295.243C1387.51 298.023 1386.5 301.255 1386.5 304.938V305.043C1386.5 307.892 1387.16 310.464 1388.48 312.757C1389.87 314.981 1392.03 316.892 1394.95 318.491C1397.94 320.089 1401.83 321.479 1406.62 322.66L1422.89 326.518C1433.73 329.089 1441.41 332.668 1445.92 337.255C1450.51 341.772 1452.81 347.819 1452.81 355.394V355.498C1452.81 361.683 1451.03 367.139 1447.49 371.865C1443.94 376.591 1439.08 380.309 1432.89 383.019C1426.78 385.66 1419.76 386.981 1411.84 386.981Z" fill="#1A1A1A"/>
</svg>
